<svg width="94" height="134" viewBox="0 0 94 134" fill="none" xmlns="http://www.w3.org/2000/svg">
<path d="M53.7143 1.17369e-05L40.2857 1.05629e-05L40.2857 100.5L26.8571 100.5L26.8571 117.25L40.2857 117.25L40.2857 134L53.7143 134L53.7143 117.25L67.1429 117.25L67.1429 100.5L53.7143 100.5L53.7143 1.17369e-05ZM80.5714 83.75L80.5714 100.5L67.1429 100.5L67.1429 83.75L80.5714 83.75ZM80.5714 83.75L80.5714 67L94 67L94 83.75L80.5714 83.75ZM13.4286 83.75L13.4286 100.5L26.8571 100.5L26.8571 83.75L13.4286 83.75ZM13.4286 83.75L13.4286 67L-9.40146e-06 67L-1.08658e-05 83.75L13.4286 83.75Z" fill="black"/>
</svg>
