<svg width="10" height="10" viewBox="0 0 10 10" fill="none" xmlns="http://www.w3.org/2000/svg">
<path d="M3.33333 0H1.66667V0.916667H0.833333V1.83333H0V4.58333H0.833333V5.5H1.66667V6.41667H2.5V7.33333H3.33333V8.25H4.16667V9.16667H5V8.25H5.83333V7.33333H6.66667V6.41667H7.5V5.5H8.33333V4.58333H9.16667V1.83333H8.33333V0.916667H7.5V0H5.83333V0.916667H5V1.83333H4.16667V0.916667H3.33333V0ZM3.33333 0.916667V1.83333H4.16667V2.75H5V1.83333H5.83333V0.916667H7.5V1.83333H8.33333V4.58333H7.5V5.5H6.66667V6.41667H5.83333V7.33333H5V8.25H4.16667V7.33333H3.33333V6.41667H2.5V5.5H1.66667V4.58333H0.833333V1.83333H1.66667V0.916667H3.33333Z" fill="black"/>
</svg>
