<svg width="131" height="101" viewBox="0 0 131 101" fill="none" xmlns="http://www.w3.org/2000/svg">
<path d="M3.86364 45V15.9091H6.51989V42.6136H20.3835V45H3.86364ZM32.6319 15.9091V45H29.9756V15.9091H32.6319ZM59.7737 23.1818C59.6127 21.5625 58.8978 20.2746 57.6288 19.3182C56.3599 18.3617 54.7642 17.8835 52.8419 17.8835C51.4877 17.8835 50.2945 18.1155 49.2624 18.5795C48.2396 19.0436 47.4347 19.6875 46.8476 20.5114C46.2699 21.3258 45.9811 22.2538 45.9811 23.2955C45.9811 24.0625 46.1468 24.7348 46.4783 25.3125C46.8097 25.8902 47.2548 26.3873 47.8135 26.804C48.3817 27.2112 49.0067 27.5616 49.6885 27.8551C50.3798 28.1487 51.0758 28.3949 51.7766 28.5938L54.8447 29.4744C55.7728 29.7301 56.7008 30.0568 57.6288 30.4545C58.5569 30.8523 59.4044 31.3542 60.1714 31.9602C60.948 32.5568 61.5682 33.2907 62.0322 34.1619C62.5057 35.0237 62.7425 36.0606 62.7425 37.2727C62.7425 38.8258 62.34 40.2225 61.5351 41.4631C60.7302 42.7036 59.5749 43.6884 58.0692 44.4176C56.5635 45.1373 54.7595 45.4972 52.6572 45.4972C50.6781 45.4972 48.9593 45.1705 47.501 44.517C46.0427 43.8542 44.8968 42.9403 44.0635 41.7756C43.2302 40.6108 42.7614 39.2614 42.6572 37.7273H45.3845C45.4792 38.8731 45.858 39.8437 46.5209 40.6392C47.1838 41.4347 48.0455 42.0407 49.1061 42.4574C50.1667 42.8646 51.3504 43.0682 52.6572 43.0682C54.1061 43.0682 55.394 42.8267 56.5209 42.3438C57.6572 41.8513 58.5474 41.1695 59.1913 40.2983C59.8447 39.4176 60.1714 38.3949 60.1714 37.2301C60.1714 36.2453 59.9158 35.4214 59.4044 34.7585C58.893 34.0862 58.1781 33.5227 57.2595 33.0682C56.3504 32.6136 55.2945 32.2112 54.0919 31.8608L50.6118 30.8381C48.3296 30.1562 46.5588 29.214 45.2993 28.0114C44.0398 26.8087 43.4101 25.2746 43.4101 23.4091C43.4101 21.8466 43.8267 20.4735 44.6601 19.2898C45.5029 18.0966 46.6392 17.1686 48.0692 16.5057C49.5086 15.8333 51.1231 15.4972 52.9129 15.4972C54.7216 15.4972 56.322 15.8286 57.7141 16.4915C59.1061 17.1544 60.2093 18.0682 61.0237 19.233C61.8476 20.3883 62.2879 21.7045 62.3447 23.1818H59.7737ZM72.7891 45H70.005L80.5874 15.9091H83.4283L94.0107 45H91.2266L82.1073 19.3608H81.9084L72.7891 45ZM74.792 33.8494H89.2238V36.2358H74.792V33.8494Z" fill="black"/>
<path d="M59.6591 66.1818C59.4981 64.5625 58.7831 63.2746 57.5142 62.3182C56.2453 61.3617 54.6496 60.8835 52.7273 60.8835C51.3731 60.8835 50.1799 61.1155 49.1477 61.5795C48.125 62.0436 47.3201 62.6875 46.733 63.5114C46.1553 64.3258 45.8665 65.2538 45.8665 66.2955C45.8665 67.0625 46.0322 67.7348 46.3636 68.3125C46.6951 68.8902 47.1402 69.3873 47.6989 69.804C48.267 70.2112 48.892 70.5616 49.5739 70.8551C50.2652 71.1487 50.9612 71.3949 51.6619 71.5938L54.7301 72.4744C55.6581 72.7301 56.5862 73.0568 57.5142 73.4545C58.4422 73.8523 59.2898 74.3542 60.0568 74.9602C60.8333 75.5568 61.4536 76.2907 61.9176 77.1619C62.3911 78.0237 62.6278 79.0606 62.6278 80.2727C62.6278 81.8258 62.2254 83.2225 61.4205 84.4631C60.6155 85.7036 59.4602 86.6884 57.9545 87.4176C56.4489 88.1373 54.6449 88.4972 52.5426 88.4972C50.5634 88.4972 48.8447 88.1705 47.3864 87.517C45.928 86.8542 44.7822 85.9403 43.9489 84.7756C43.1155 83.6108 42.6468 82.2614 42.5426 80.7273H45.2699C45.3646 81.8731 45.7434 82.8437 46.4062 83.6392C47.0691 84.4347 47.9309 85.0407 48.9915 85.4574C50.0521 85.8646 51.2358 86.0682 52.5426 86.0682C53.9915 86.0682 55.2794 85.8267 56.4062 85.3438C57.5426 84.8513 58.4328 84.1695 59.0767 83.2983C59.7301 82.4176 60.0568 81.3949 60.0568 80.2301C60.0568 79.2453 59.8011 78.4214 59.2898 77.7585C58.7784 77.0862 58.0634 76.5227 57.1449 76.0682C56.2358 75.6136 55.1799 75.2112 53.9773 74.8608L50.4972 73.8381C48.215 73.1562 46.4441 72.214 45.1847 71.0114C43.9252 69.8087 43.2955 68.2746 43.2955 66.4091C43.2955 64.8466 43.7121 63.4735 44.5455 62.2898C45.3883 61.0966 46.5246 60.1686 47.9545 59.5057C49.3939 58.8333 51.0085 58.4972 52.7983 58.4972C54.607 58.4972 56.2074 58.8286 57.5994 59.4915C58.9915 60.1544 60.0947 61.0682 60.9091 62.233C61.733 63.3883 62.1733 64.7045 62.2301 66.1818H59.6591ZM72.6745 88H69.8904L80.4728 58.9091H83.3137L93.8961 88H91.112L81.9927 62.3608H81.7938L72.6745 88ZM74.6773 76.8494H89.1092V79.2358H74.6773V76.8494ZM99.8021 58.9091L108.893 84.5483H109.149L118.24 58.9091H121.024L110.441 88H107.6L97.018 58.9091H99.8021Z" fill="black"/>
</svg>
