<svg width="123" height="30" viewBox="0 0 123 30" fill="none" xmlns="http://www.w3.org/2000/svg">
<path d="M-1.09076e-05 3.24249e-05H3.06817L13.6221 25.3409H13.8778L24.4318 3.24249e-05H27.5V29.0909H25V5.61083H24.7727L14.9574 29.0909H12.5426L2.72726 5.61083H2.49999V29.0909H-1.09076e-05V3.24249e-05ZM38.8464 29.0909V3.24249e-05H55.7214V2.38639H41.5026V13.3381H54.8265V15.7245H41.5026V26.7046H56.0055V29.0909H38.8464ZM88.8646 3.24249e-05V29.0909H86.2794L69.0919 4.73015H68.8646V29.0909H66.2084V3.24249e-05H68.7794L86.0237 24.3892H86.251V3.24249e-05H88.8646ZM119.6 3.24249e-05H122.256V19.2614C122.256 21.2406 121.792 23.0114 120.864 24.5739C119.936 26.1269 118.644 27.3533 116.987 28.2529C115.339 29.143 113.421 29.5881 111.234 29.5881C109.056 29.5881 107.138 29.1383 105.481 28.2387C103.824 27.339 102.531 26.1127 101.603 24.5597C100.675 23.0067 100.211 21.2406 100.211 19.2614V3.24249e-05H102.867V19.0767C102.867 20.6203 103.213 21.9981 103.904 23.2103C104.595 24.4129 105.566 25.3599 106.816 26.0512C108.076 26.7425 109.548 27.0881 111.234 27.0881C112.919 27.0881 114.392 26.7425 115.651 26.0512C116.911 25.3599 117.881 24.4129 118.563 23.2103C119.255 21.9981 119.6 20.6203 119.6 19.0767V3.24249e-05Z" fill="black"/>
</svg>
