<svg width="129" height="109" viewBox="0 0 129 109" fill="none" xmlns="http://www.w3.org/2000/svg">
<path d="M1.15649 2.16309C17.474 -1.67633 43.7834 -0.438337 67.9163 6.15234C80.0032 9.45334 91.622 14.1167 101.22 20.2178C110.811 26.3146 118.474 33.9054 122.492 43.0908C128.639 57.1412 128.847 68.9004 125.224 79.3711C121.851 89.118 115.204 97.6104 107.297 105.724C108.839 105.815 110.987 105.795 113.335 105.668C115.922 105.528 118.692 105.263 121.069 104.903C123.514 104.533 125.34 104.09 126.182 103.669C126.923 103.299 127.824 103.599 128.195 104.34C128.565 105.081 128.265 105.982 127.524 106.353C126.205 107.012 123.937 107.504 121.518 107.87C119.029 108.247 116.161 108.519 113.497 108.663C110.845 108.807 108.336 108.828 106.578 108.683C105.744 108.614 104.908 108.496 104.31 108.256C104.079 108.163 103.454 107.894 103.154 107.224C102.81 106.458 103.108 105.813 103.391 105.438C103.888 101.895 102.988 97.1215 102.144 93.4648C101.958 92.6579 102.462 91.8524 103.269 91.666C104.076 91.48 104.881 91.9839 105.068 92.791C105.668 95.3929 106.384 98.8911 106.51 102.214C113.67 94.6738 119.415 86.9855 122.389 78.3906C125.736 68.7173 125.626 57.7393 119.743 44.293C116.042 35.8336 108.894 28.6512 99.6106 22.75C90.3338 16.8531 79.013 12.2932 67.1262 9.04688C43.3118 2.54307 17.5322 1.39171 1.84399 5.08301C1.03788 5.27255 0.230286 4.77275 0.0402832 3.9668C-0.14942 3.16056 0.350383 2.35305 1.15649 2.16309Z" fill="#FF6427"/>
</svg>
